# xmcd
#
# Track frame offsets:
#	150
#	26921
#	57438
#	82724
#	101098
#	143527
#	193139
#	245283
#
# Disc length: 3494 seconds
#
# Revision: 0
# Processed by: cddbd v1.5.2PL0 Copyright (c) Steve Scherf et al.
# Submitted via: audiograbber 1.83.01
#
DISCID=640da408
DTITLE=Rudy Rotta - Live in Kansas City
DYEAR=2002
DGENRE=Blues
TTITLE0=Hold on
TTITLE1=Loner and goner
TTITLE2=You don't have to go
TTITLE3=Crossroads
TTITLE4=Deep down
TTITLE5=The last time
TTITLE6=More and more
TTITLE7=Hideaway
EXTD=
EXTT0=
EXTT1=
EXTT2=
EXTT3=
EXTT4=
EXTT5=
EXTT6=
EXTT7=
PLAYORDER=
